<?xml version="1.0" encoding="utf-8"?>
<!-- Generator: Adobe Illustrator 23.0.1, SVG Export Plug-In . SVG Version: 6.00 Build 0)  -->
<svg version="1.1" id="Слой_1" xmlns="http://www.w3.org/2000/svg" xmlns:xlink="http://www.w3.org/1999/xlink" x="0px" y="0px"
	 viewBox="0 0 683.2 683.2" style="enable-background:new 0 0 683.2 683.2;" xml:space="preserve">
<style type="text/css">
	.st0{fill:#FFFFFF;}
</style>
<g>
	<path class="st0" d="M283.4,341.4c-16.4,0-29.9,0-45,0c0-21.3-0.4-41.2,0.5-61.2c0.1-2.9,6.5-7.5,10.3-7.9
		c10.6-1.1,21.4-0.4,34.4-0.4c0-23.7-1.1-46.1,0.4-68.4c1-14.9,9.7-26.9,19.6-38.6c18.7-22.2,43-24,68.7-23.9
		c24.3,0.1,48.7,0,74.4,0c0,21.1,0.2,40.6-0.1,60.1c-0.1,8.1-5.6,10.8-13.3,10.6c-12.2-0.2-24.4,0.2-36.6,0.3
		c-13,0-20,5.7-19.7,19.4c0.3,12.6,0.1,25.3,0.1,39.5c23,0,44.8,0,68.7,0c0.4,23.9,5.6,46.6-9.3,66.7c-1.9,2.6-7,3.8-10.7,3.9
		c-15.4,0.4-30.9,0.2-48.4,0.2c0,67.1,0,132.9,0,200.3c-30.1,0-58.1,0-86.1,0c-9.9,0-7.9-7.4-7.9-13.1c0-54.5,0-108.9,0.1-163.4
		C283.4,358.4,283.4,351,283.4,341.4z"/>
</g>
<g>
	<path class="st0" d="M341.6,25c42.8,0,84.2,8.4,123.2,24.9c37.7,15.9,71.6,38.8,100.6,67.9c29.1,29.1,51.9,62.9,67.9,100.6
		c16.5,39,24.9,80.5,24.9,123.2s-8.4,84.2-24.9,123.2c-15.9,37.7-38.8,71.6-67.9,100.6c-29.1,29.1-62.9,51.9-100.6,67.9
		c-39,16.5-80.5,24.9-123.2,24.9s-84.2-8.4-123.2-24.9c-37.7-15.9-71.6-38.8-100.6-67.9c-29.1-29.1-51.9-62.9-67.9-100.6
		C33.4,425.8,25,384.4,25,341.6s8.4-84.2,24.9-123.2c15.9-37.7,38.8-71.6,67.9-100.6c29.1-29.1,62.9-51.9,100.6-67.9
		C257.4,33.4,298.9,25,341.6,25 M341.6,0C152.9,0,0,152.9,0,341.6s152.9,341.6,341.6,341.6s341.6-152.9,341.6-341.6S530.3,0,341.6,0
		L341.6,0z"/>
</g>
</svg>
