<?xml version="1.0" encoding="utf-8"?>
<!-- Generator: Adobe Illustrator 23.0.1, SVG Export Plug-In . SVG Version: 6.00 Build 0)  -->
<svg version="1.1" id="Слой_1" xmlns="http://www.w3.org/2000/svg" xmlns:xlink="http://www.w3.org/1999/xlink" x="0px" y="0px"
	 viewBox="0 0 1001.3 1001.3" style="enable-background:new 0 0 1001.3 1001.3;" xml:space="preserve">
<style type="text/css">
	.st0{fill:#FFFFFF;}
</style>
<g>
	<path class="st0" d="M528.9,473.2c1.4,0.2,2.1,0.4,2.9,0.4c1.6,0.1,3.2,0,4.8,0c71.2,0,142.4,0,213.5,0c2.1,0,4.2,0,6.2,0
		c11,0.4,19.1,5.6,24.2,15.2c1.9,3.6,2.9,7.6,2.9,11.9c0,5.3-1.2,10.1-4,14.5c-3.4,5.3-7.9,9.3-14,11.5c-3.9,1.4-7.8,1.6-11.8,1.6
		c-53.7,0-107.5,0-161.2,0c-29.7,0-59.5,0-89.2,0c-3.4,0-6.6-0.3-9.9-1.4c-5-1.7-9.1-4.6-12.4-8.5c-4.2-5-6.5-10.7-6.5-17.4
		c0-107.6,0-215.3,0-322.9c0-4.6,0.7-8.9,2.2-13.1c1.4-3.9,3.9-7.3,7.1-10c2.8-2.4,6.1-4,9.5-5.5c0.9-0.4,1.9-0.5,2.8-0.6
		c2.9-0.1,5.7-0.1,8.6-0.2c3.8-0.2,7.2,1.4,10.4,3.1c5.2,2.8,9.1,7,11.4,12.4c1.3,3,2.6,6.2,2.5,9.6c0,2.4,0.1,4.8,0.1,7.2
		c0,95.2,0,190.3,0,285.5C528.9,468.6,528.9,470.6,528.9,473.2z"/>
</g>
<g>
	<path class="st0" d="M500.7,55c60.1,0,118.3,11.7,173.1,34.9c52.9,22.4,100.5,54.5,141.4,95.3c40.9,40.9,72.9,88.4,95.3,141.4
		c23.2,54.8,34.9,113,34.9,173.1S933.6,618,910.4,672.8C888,725.7,856,773.3,815.1,814.1c-40.9,40.9-88.4,72.9-141.4,95.3
		c-54.8,23.2-113,34.9-173.1,34.9s-118.3-11.7-173.1-34.9C274.7,887,227.1,855,186.2,814.1c-40.9-40.9-72.9-88.4-95.3-141.4
		C67.7,618,56,559.7,56,499.7s11.7-118.3,34.9-173.1c22.4-52.9,54.5-100.5,95.3-141.4c40.9-40.9,88.4-72.9,141.4-95.3
		C382.4,66.7,440.6,55,500.7,55 M500.7,0C224.7,0,1,223.7,1,499.7s223.7,499.7,499.7,499.7s499.7-223.7,499.7-499.7S776.6,0,500.7,0
		L500.7,0z"/>
</g>
</svg>
