<?xml version="1.0" encoding="utf-8"?>
<!-- Generator: Adobe Illustrator 23.0.1, SVG Export Plug-In . SVG Version: 6.00 Build 0)  -->
<svg version="1.1" id="Слой_1" xmlns="http://www.w3.org/2000/svg" xmlns:xlink="http://www.w3.org/1999/xlink" x="0px" y="0px"
	 viewBox="0 0 683.2 683.2" style="enable-background:new 0 0 683.2 683.2;" xml:space="preserve">
<style type="text/css">
	.st0{display:none;}
	.st1{display:inline;fill:#FFFFFF;}
	.st2{fill:#FFFFFF;}
	.st3{display:none;fill:#FFFFFF;}
</style>
<g class="st0">
	<path class="st1" d="M283.4,341.4c-16.4,0-29.9,0-45,0c0-21.3-0.4-41.2,0.5-61.2c0.1-2.9,6.5-7.5,10.3-7.9
		c10.6-1.1,21.4-0.4,34.4-0.4c0-23.7-1.1-46.1,0.4-68.4c1-14.9,9.7-26.9,19.6-38.6c18.7-22.2,43-24,68.7-23.9
		c24.3,0.1,48.7,0,74.4,0c0,21.1,0.2,40.6-0.1,60.1c-0.1,8.1-5.6,10.8-13.3,10.6c-12.2-0.2-24.4,0.2-36.6,0.3
		c-13,0-20,5.7-19.7,19.4c0.3,12.6,0.1,25.3,0.1,39.5c23,0,44.8,0,68.7,0c0.4,23.9,5.6,46.6-9.3,66.7c-1.9,2.6-7,3.8-10.7,3.9
		c-15.4,0.4-30.9,0.2-48.4,0.2c0,67.1,0,132.9,0,200.3c-30.1,0-58.1,0-86.1,0c-9.9,0-7.9-7.4-7.9-13.1c0-54.5,0-108.9,0.1-163.4
		C283.4,358.4,283.4,351,283.4,341.4z"/>
</g>
<g>
	<path class="st2" d="M341.6,25c42.8,0,84.2,8.4,123.2,24.9c37.7,15.9,71.6,38.8,100.6,67.9c29.1,29.1,51.9,62.9,67.9,100.6
		c16.5,39,24.9,80.5,24.9,123.2s-8.4,84.2-24.9,123.2c-15.9,37.7-38.8,71.6-67.9,100.6c-29.1,29.1-62.9,51.9-100.6,67.9
		c-39,16.5-80.5,24.9-123.2,24.9s-84.2-8.4-123.2-24.9c-37.7-15.9-71.6-38.8-100.6-67.9c-29.1-29.1-51.9-62.9-67.9-100.6
		C33.4,425.8,25,384.4,25,341.6s8.4-84.2,24.9-123.2c15.9-37.7,38.8-71.6,67.9-100.6c29.1-29.1,62.9-51.9,100.6-67.9
		C257.4,33.4,298.9,25,341.6,25 M341.6,0C152.9,0,0,152.9,0,341.6s152.9,341.6,341.6,341.6s341.6-152.9,341.6-341.6S530.3,0,341.6,0
		L341.6,0z"/>
</g>
<path class="st2" d="M267.9,161.3c-58.7,0-106.6,47.8-106.6,106.6v147.5c0,58.7,47.8,106.6,106.6,106.6h147.5
	c58.7,0,106.6-47.8,106.6-106.6V267.9c0-58.7-47.8-106.6-106.6-106.6H267.9z M267.9,177.7h147.5c49.9,0,90.2,40.3,90.2,90.2v147.5
	c0,49.9-40.3,90.2-90.2,90.2H267.9c-49.9,0-90.2-40.3-90.2-90.2V267.9C177.7,218,218,177.7,267.9,177.7z M440,226.9
	c-9.1,0-16.4,7.3-16.4,16.4s7.3,16.4,16.4,16.4c9.1,0,16.4-7.3,16.4-16.4S449,226.9,440,226.9z M341.6,251.5
	c-49.7,0-90.2,40.5-90.2,90.2s40.5,90.2,90.2,90.2s90.2-40.5,90.2-90.2S391.3,251.5,341.6,251.5z M341.6,267.9
	c40.8,0,73.8,32.9,73.8,73.8s-32.9,73.8-73.8,73.8s-73.8-32.9-73.8-73.8S300.8,267.9,341.6,267.9z"/>
<path class="st3" d="M431.8,217.7H251.4c-18.6,0-33.8,15.2-33.8,33.8v180.4c0,18.6,15.2,33.8,33.8,33.8h180.4
	c18.6,0,33.8-15.2,33.8-33.8V251.5C465.6,232.8,450.4,217.7,431.8,217.7z M341.6,420.6c-43.5,0-78.9-35.4-78.9-78.9
	s35.4-78.9,78.9-78.9s78.9,35.4,78.9,78.9S385.1,420.6,341.6,420.6z M420.5,285.3c-12.4,0-22.5-10.1-22.5-22.5
	c0-12.4,10.1-22.5,22.5-22.5s22.5,10.1,22.5,22.5C443.1,275.2,433,285.3,420.5,285.3z"/>
<path class="st3" d="M476.9,149.3H206.4c-31.1,0-57.1,26-57.1,57.1v270.5c0,31.1,26,57.1,57.1,57.1h270.5c31.1,0,57.1-26,57.1-57.1
	V206.4C534,175.3,508,149.3,476.9,149.3z M488.2,431.8c0,31.1-25.3,56.4-56.4,56.4H251.4c-31.1,0-56.4-25.3-56.4-56.4V251.5
	c0-31.1,25.3-56.4,56.4-56.4h180.4c31.1,0,56.4,25.3,56.4,56.4V431.8z"/>
</svg>
