<?xml version="1.0" encoding="utf-8"?>
<!-- Generator: Adobe Illustrator 23.0.1, SVG Export Plug-In . SVG Version: 6.00 Build 0)  -->
<svg version="1.1" id="Слой_1" xmlns="http://www.w3.org/2000/svg" xmlns:xlink="http://www.w3.org/1999/xlink" x="0px" y="0px"
	 viewBox="0 0 3000 3000" style="enable-background:new 0 0 3000 3000;" xml:space="preserve">
<style type="text/css">
	.st0{fill:#FFFFFF;}
	.st1{fill:#E42E35;}
	.st2{display:none;fill:#0C0C0C;}
	.st3{display:none;fill:#0A0A0A;}
	.st4{display:none;fill:#080808;}
	.st5{display:none;fill:#090909;}
	.st6{display:none;fill:#0B0B0B;}
	.st7{display:none;fill:#0D0D0D;}
	.st8{fill:#E5373D;}
	.st9{fill:#E5363D;}
</style>
<g>
	<g>
		<path class="st0" d="M419.8,1179.7c88.9-348.5,450.5-790.6,1042.9-814.8c598.6-24.5,1023.5,395.5,1138,814.6
			c-32,0-102.1,0-102.1,0s-4.6-15.8-7.9-24.9c-59.2-164.5-153.9-305.1-282.9-423C1665.3,236.1,779.2,456.2,532.1,1148.4
			c-9.1,25.4-11.1,31-11.1,31S442.2,1179.7,419.8,1179.7z"/>
		<path class="st0" d="M443.5,1900h102.7c0,0,23.5,51.8,37.1,78.6c184,364,579.6,593.9,985.8,563.3
			c416.2-31.4,713.1-242.3,892.8-618.2c8.9-18.6,10-23.7,10-23.7s77.4,0,107.1,0c-55.7,150.8-137.1,280.8-247.1,393.7
			c-202.6,208.1-449,326.3-738.9,346.8C989.1,2683.2,567.4,2271.3,443.5,1900z"/>
		<path class="st1" d="M677.3,1179.5c101.8-283.5,416-584,860.4-570.8C1751.9,615,1940,691.4,2102,832
			c103.2,89.5,222.8,263.6,238.7,347.6c-13.9,0-32.4,0-32.4,0s-7.5-15.6-10.4-21.7c-165.9-341.7-439-523.6-819.1-512
			c-351.5,10.8-602.8,192.2-755.6,508.6c-4.1,8.5-11.8,25-11.8,25S692.6,1179.5,677.3,1179.5z"/>
		<path class="st1" d="M2309.3,1900c-98,219.9-372,488.3-774.3,499c-409.8,10.9-710.5-248.4-826.1-499c12.8,0,26,0,36,0
			c0,0,6.4,11.2,11.1,19.1c168.5,286.7,418.8,442.8,752.1,443.6c332.2,0.8,582.7-153.4,752.7-438.1c5.2-8.7,13.6-24.7,13.6-24.7
			S2306.7,1900,2309.3,1900z"/>
		<path class="st2" d="M532.3,1486.8c-20.9,59.5-42.1,118.8-62.4,178.5c-4.9,14.4-9.3,23.6-28,23.8c-19.7,0.2-25.1-8.9-30.4-24.6
			c-18.4-54.9-38-109.5-57.3-164.1c-2.8-7.8-6.3-15.3-12.9-22c0,68.9,0,137.9,0,208.3c-19.3,0-37.4,0-57.4,0c0-99.1,0-197.8,0-300.3
			c24.4,0,48.7-1.1,72.7,0.8c5.9,0.5,13.9,9.5,16.1,16.2c20.6,61.5,40.1,123.4,60.1,185.1c1,3,4.1,5.3,9.3,11.9
			c20.6-61,41.9-118.4,58.8-177.1c8.6-29.8,22.2-42.3,53-37.3c13.5,2.2,27.7,0.4,43.1,0.4c0,101.2,0,200.1,0,300.3
			c-18.7,0-36.6,0-55.5,0c0-68,0-134.5,0-201.1c0.4-6.1,0.9-12.2,1.3-18.2c-1.7-0.3-3.4-0.5-5.1-0.8
			C535.9,1473.3,534.1,1480.1,532.3,1486.8z"/>
		<path class="st3" d="M2501.2,1536.9c-0.1,89.2-67.9,157-156.8,156.9c-88.5-0.2-156.6-68.8-156.4-157.6
			c0.2-87.5,70.1-156.2,158.5-155.7C2433.6,1381,2501.3,1449.5,2501.2,1536.9z M2249.7,1537.7c0.4,56.8,42.6,100.7,96.3,100.3
			c53.7-0.4,94.8-45.1,94.2-102.2c-0.6-54.2-43.5-98.9-95.2-99.1C2291.3,1436.6,2249.3,1481,2249.7,1537.7z"/>
		<path class="st4" d="M652.6,1685.4c0-99.1,0-197.3,0-297.3c19,0,37,0,58.5,0c0,62,0,124.4,0,186.8c2,0.6,4.1,1.2,6.1,1.8
			c15.8-23.6,31.7-47.2,47.5-70.8c19.1-28.5,40.7-55.6,56.6-85.8c16.3-30.9,38.3-40.5,72.8-31.4c0,97.6,0,196.3,0,297.2
			c-17.8,0-36.4,0-57.4,0c0-62.5,0-124.4,0-193.3c-8.2,10.1-12.6,14.6-16,19.7c-31.8,47.4-65.8,93.6-94.3,143
			C708.6,1686.2,686.7,1693.5,652.6,1685.4z"/>
		<path class="st5" d="M2543.2,1386.9c33.3,0,63.9-1.1,94.5,0.3c33.3,1.6,62.9,13.1,76.3,46.5c13.6,34,8.7,65.6-24.1,91.5
			c26.3,13.7,42.7,32.7,45.8,61c5.8,52.2-22.4,89.4-75.9,99.1c-10.3,1.9-20.9,2.4-31.4,2.5c-27.9,0.3-55.8,0.1-85.2,0.1
			C2543.2,1587.1,2543.2,1488.4,2543.2,1386.9z M2603.2,1557.2c0,25.9,0,50.6,0,76.4c25.9-0.2,53.5,7.9,68.1-18
			c6-10.7,5.4-30.9-1-41.5C2655.2,1548.8,2628.3,1556,2603.2,1557.2z M2602.6,1433.6c0,31.8,0,52.4,0,82
			c20.9-8.9,39.7-13.1,52.6-24.2c6.2-5.4,6.4-30,0.4-35C2642.5,1445.7,2623.6,1442,2602.6,1433.6z"/>
		<path class="st6" d="M2162,1482.3c-17.1,0-32.2,1.6-46.7-0.6c-9.1-1.3-19.7-6.2-25.8-12.9c-36-39.7-93.3-43.5-131.3-7.7
			c-42.7,40.3-42.9,110.7-0.4,150.9c38.5,36.4,97.3,34.6,130.8-5.7c21.2-25.5,47.6-6.2,71.3-14.3c-6.5,57-73,103.3-142.4,101.6
			c-80.6-1.9-145.8-63.4-152.2-143.2c-6.5-82.7,48-154.5,127.4-167.8C2070.5,1369.7,2143,1411,2162,1482.3z"/>
		<path class="st3" d="M1866.8,1686.8c-7,0.6-10.4,1.2-13.8,1.3c-49.1,1.2-49.8,1.5-65.8-44.3c-5.6-16-13.3-22.9-30.2-20.7
			c-9.5,1.2-19.5,1.5-28.9,0c-42.2-6.7-73.3,2.3-80.3,51.2c-0.8,5.2-9.9,12.5-15.7,13.2c-16.3,1.8-33,0.6-53,0.6
			c5.8-15.5,10.2-27.7,15-39.7c32-80.7,64.8-161.1,95.6-242.2c6.9-18.2,17.3-20.7,33.7-20.2c15.4,0.5,27,0.2,34.2,19.3
			c33.2,87.7,68.5,174.7,102.9,261.9C1862.8,1672.7,1864.2,1678.6,1866.8,1686.8z M1726.7,1468.5c-1.8,0-3.6,0-5.4,0
			c-11.4,33.4-22.9,66.8-34.9,101.8c26.8,0,49.1,0,74.5,0C1749,1535,1737.8,1501.8,1726.7,1468.5z"/>
		<path class="st7" d="M1010.6,1582.3c0,34.6,0,68.5,0,104.2c-21.2,0-40,0-59.9,0c0-99.3,0-197.4,0-303.6c50,4,100,3.4,147.9,13.3
			c41.2,8.5,60,48.4,56.2,95.7c-3.5,43.4-30.9,75.9-74.3,84.3C1058.4,1580.4,1035.4,1580.3,1010.6,1582.3z M1011.4,1524.9
			c25.9-0.9,56,9.6,75.7-16.3c8-10.4,9.4-33.8,3.1-45.7c-16.9-31.7-49.2-20.5-78.8-22.5C1011.4,1469,1011.4,1494.9,1011.4,1524.9z"
			/>
		<path class="st3" d="M1554,1686.7c-19,0-36.9,0-57.4,0c0-37.8,0-74.2,0-112.5c-17.4,2.1-32,4.6-46.6,5.4
			c-54.1,3-89.6-25.3-97.8-77.8c-1.5-9.5-1.6-19.2-1.6-28.8c-0.2-27.9-0.1-55.7-0.1-85.1c19.7,0,36.8,0,58.1,0
			c0,28.2-0.2,56.7,0,85.2c0.3,46.2,39.6,69.6,79.2,46.4c5.3-3.1,8.1-14.3,8.3-21.8c0.8-35.8,0.4-71.7,0.4-109.4
			c19.7,0,37.5,0,57.6,0C1554,1486.6,1554,1585.2,1554,1686.7z"/>
		<path class="st0" d="M1917.1,1976.8c8.9-7.6,15.4-13,23.7-20.1c37.9,41.7,74.9,82.4,116.2,127.9c-7.8,5.7-15.2,11.1-25.2,18.4
			C1994.2,2061.6,1956.8,2020.5,1917.1,1976.8z"/>
		<path class="st0" d="M2053.9,922.4c-39.4,43.9-76.7,85.3-114.9,127.8c-8.4-7.6-14.8-13.4-23.1-21c38.1-42.3,75.4-83.7,113.8-126.4
			C2037.7,909.3,2044.2,914.6,2053.9,922.4z"/>
		<path class="st0" d="M961.2,927.8c8.8-8.1,14.5-13.3,22.9-21c38.2,41.5,75.8,82.5,117.1,127.5c-7.7,6.5-14.8,12.5-23.9,20.2
			C1038.2,1011.8,1000.6,970.8,961.2,927.8z"/>
		<path class="st8" d="M1501.1,709.4c0,57.5,0,112.4,0,168.8c-9.8,0-18.1,0-28.3,0c0-56.2,0-111.7,0-168.8
			C1482.2,709.4,1490.5,709.4,1501.1,709.4z"/>
		<path class="st9" d="M1518.9,709.3c10.1,0,18.3,0,28.3,0c0,56.2,0,111,0,168.1c-9,0-17.8,0-28.3,0
			C1518.9,822.2,1518.9,767.4,1518.9,709.3z"/>
		<path class="st0" d="M1523.6,2298.2c-9.6,0-17.2,0-27,0c0-56.2,0-111.6,0-168.4c8.9,0,17.2,0,27,0
			C1523.6,2185.6,1523.6,2240.5,1523.6,2298.2z"/>
		<path class="st0" d="M971.2,2089c-8.4-7.9-14.5-13.8-22.7-21.5c32.7-34.4,64.6-67.9,98.4-103.4c7.5,6.8,14.3,12.9,23.3,20.9
			C1037.1,2019.8,1005.3,2053.3,971.2,2089z"/>
		<g>
			<g>
				<path class="st0" d="M502.6,1391.6h60.5v292.3h-49.2V1461l2.2,12.9l-69.8,173.5h-42.1l-69.8-169.5l2.2-16.9v222.9h-49.2v-292.3
					h60.6l77.2,195L502.6,1391.6z"/>
				<path class="st0" d="M826.8,1683.7v-231.8l5.3,5.2l-140.2,226.6h-54.2v-292.1h50.8v235.2l-5.3-5.2l140.7-230h53.8v292.1H826.8z"
					/>
				<path class="st0" d="M952.3,1391.6h52.4v292.3h-52.4V1391.6z M977.6,1524.6h102c8.4,0,15.9-1.8,22.3-5.3
					c6.4-3.5,11.3-8.6,14.9-15.2c3.6-6.6,5.4-14.1,5.4-22.8c0-8.7-1.8-16.4-5.3-23c-3.5-6.6-8.4-11.7-14.9-15.3
					c-6.5-3.6-13.9-5.4-22.4-5.4h-102v-46H1078c19.4,0,36.6,3.7,51.3,11.2c14.8,7.5,26.3,18,34.4,31.5c8.1,13.5,12.3,29.2,12.3,47
					c0,17.9-4.1,33.5-12.3,46.9c-8.2,13.4-19.7,23.8-34.4,31.3c-14.8,7.4-31.9,11.1-51.3,11.1H977.6V1524.6z"/>
				<path class="st0" d="M1387.8,1586.1c-14.3-7.7-25.2-18.7-32.7-33.4c-7.5-14.6-11.2-32.2-11.2-52.9v-108.1h52.4v109.6
					c0,15.5,4.3,27.6,13,36.1c8.6,8.5,20.8,12.8,36.6,12.8c19.4,0,34.4-4.6,45-13.7c10.6-9.2,15.9-22.2,15.9-39.1v-23.2h14v34.7
					c0,18.6-3.1,34.5-9.5,47.9c-6.4,13.2-15.7,23.4-27.9,30.3c-12.2,7-27,10.5-44.3,10.5C1419.3,1597.5,1402.1,1593.6,1387.8,1586.1
					z M1506.9,1391.6h52.4v292.3h-52.4V1391.6z"/>
				<path class="st0" d="M1723,1391.6h38.2l119.8,292.3h-56.4l-82.5-217.7l-82.5,217.7h-56.4L1723,1391.6z M1659.6,1582.4h167.8v46
					h-167.8V1582.4z"/>
				<path class="st0" d="M1971.4,1673.8c-17.1-8.7-30.1-21.3-39.2-37.7c-9.1-16.4-13.7-35.7-13.7-58.1v-80.3
					c0-22.4,4.6-41.7,13.7-58.1c9.1-16.4,22.3-28.9,39.2-37.8c17.1-8.8,37.1-13.2,60.2-13.2c19.1,0,36.5,3.7,52.1,11.3
					c15.6,7.6,28.6,18.3,38.9,32.5c10.3,14.1,17.4,30.8,21.2,50.1h-54c-2.6-9.4-6.8-17.6-12.5-24.6s-12.5-12.5-20.3-16.2
					c-7.8-3.7-16.3-5.6-25.3-5.6c-12.2,0-22.7,2.6-31.5,7.6s-15.7,12.2-20.5,21.4c-4.8,9.2-7.3,20.2-7.3,32.8v80.2
					c0,12.6,2.5,23.5,7.3,32.8s11.7,16.4,20.5,21.3c8.8,5,19.3,7.5,31.5,7.5c9.2,0,17.8-1.8,25.5-5.4c7.8-3.6,14.6-8.9,20.3-15.9
					c5.7-7,9.8-15.3,12.3-25.1h54c-3.9,19.3-11.1,36-21.4,50.1s-23.3,24.9-38.9,32.5c-15.6,7.6-32.9,11.3-51.9,11.3
					C2008.5,1686.9,1988.3,1682.5,1971.4,1673.8z"/>
				<path class="st0" d="M2250.7,1673.6c-17.3-8.9-30.6-21.5-40.1-37.8c-9.5-16.3-14.2-35.1-14.2-56.6v-82.8
					c0-21.5,4.7-40.3,14.2-56.6c9.5-16.3,22.9-28.8,40.1-37.8s37.2-13.3,59.9-13.3c22.7,0,42.7,4.4,59.9,13.3
					c17.3,8.9,30.6,21.5,40.1,37.8c9.5,16.3,14.2,35.1,14.2,56.6v82.8c0,21.5-4.7,40.3-14.2,56.6c-9.5,16.3-22.9,28.8-40.1,37.8
					c-17.3,8.9-37.2,13.3-59.9,13.3C2287.9,1686.9,2268,1682.5,2250.7,1673.6z M2342.3,1632.1c9.1-4.8,16.2-11.7,21.2-20.6
					c5-8.9,7.5-19.2,7.5-30.8V1495c0-11.7-2.5-22-7.5-30.8c-5-8.9-12.1-15.8-21.2-20.6c-9.1-4.8-19.7-7.3-31.7-7.3
					c-12,0-22.6,2.5-31.7,7.3c-9.1,4.8-16.2,11.7-21.2,20.6s-7.5,19.2-7.5,30.8v85.7c0,11.7,2.5,22,7.5,30.8
					c5,8.9,12.1,15.8,21.2,20.6c9.1,4.8,19.7,7.3,31.7,7.3C2322.5,1639.3,2333.1,1636.9,2342.3,1632.1z"/>
				<path class="st0" d="M2492.9,1391.6h52.2v292.3h-52.2V1391.6z M2519.3,1638.5h94.1c18.3,0,31.9-3.5,40.8-10.6
					c8.9-7.1,13.3-16.9,13.3-29.4v-0.6c0-8.7-1.8-16.2-5.3-22.3c-3.5-6.2-8.9-10.9-16.2-14.1c-7.4-3.2-16.4-4.9-27.2-4.9h-99.6v-45
					h99.6c14.5,0,25.5-3.2,33.2-9.6c7.6-6.5,11.4-15.7,11.4-28c0-12.1-4-21.2-12.1-27.5c-8-6.3-19.9-9.3-35.5-9.3h-96.6v-45.4h101.6
					c20.6,0,38.1,3.1,52.3,9.5c14.2,6.4,25,15.4,32.3,27.3c7.3,11.8,10.9,25.9,10.9,42.4c0,10.7-2.3,20.5-6.9,29.2
					s-11.4,16.1-20.4,22c-9,5.9-20,9.9-33.1,12.1c13.4,1.8,25,5.8,34.6,12.2c9.6,6.4,17.1,14.5,22.2,24.3c5.1,9.8,7.7,20.9,7.7,33.1
					v0.6c0,16.2-3.8,30.3-11.5,42.3c-7.7,12-18.7,21.2-33.2,27.7s-31.5,9.6-51.2,9.6h-105.3L2519.3,1638.5L2519.3,1638.5z"/>
			</g>
		</g>
	</g>
</g>
</svg>
