<?xml version="1.0" encoding="utf-8"?>
<!-- Generator: Adobe Illustrator 23.0.1, SVG Export Plug-In . SVG Version: 6.00 Build 0)  -->
<svg version="1.1" id="Слой_1" xmlns="http://www.w3.org/2000/svg" xmlns:xlink="http://www.w3.org/1999/xlink" x="0px" y="0px"
	 viewBox="0 0 893 893.1" style="enable-background:new 0 0 893 893.1;" xml:space="preserve">
<style type="text/css">
	.st0{fill:#FFFFFF;}
</style>
<g>
	<path class="st0" d="M365.7,65c40.6,0,80,7.9,117,23.6c35.8,15.1,68,36.8,95.6,64.5s49.3,59.8,64.5,95.6
		c15.7,37,23.6,76.4,23.6,117s-7.9,80-23.6,117c-15.1,35.8-36.8,68-64.5,95.6s-59.8,49.3-95.6,64.5c-37,15.7-76.4,23.6-117,23.6
		s-80-7.9-117-23.6c-35.8-15.1-68-36.8-95.6-64.5c-27.6-27.6-49.3-59.8-64.5-95.6c-15.7-37-23.6-76.4-23.6-117s7.9-80,23.6-117
		c15.1-35.8,36.8-68,64.5-95.6c27.6-27.6,59.8-49.3,95.6-64.5C285.7,72.9,325.1,65,365.7,65 M365.7,0C163.7,0,0,163.7,0,365.7
		s163.7,365.7,365.7,365.7s365.7-163.7,365.7-365.7S567.7,0,365.7,0L365.7,0z"/>
</g>
<path class="st0" d="M883.6,837.2L636.3,589.9c-12.5-12.5-32.6-12.5-45.1,0l-1.4,1.4c-12.5,12.5-12.5,32.6,0,45.1l247.3,247.3
	c12.5,12.5,32.6,12.5,45.1,0l1.4-1.4C896.1,869.9,896.1,849.7,883.6,837.2z"/>
</svg>
