<?xml version="1.0" encoding="utf-8"?>
<!-- Generator: Adobe Illustrator 23.0.1, SVG Export Plug-In . SVG Version: 6.00 Build 0)  -->
<svg version="1.1" id="Слой_1" xmlns="http://www.w3.org/2000/svg" xmlns:xlink="http://www.w3.org/1999/xlink" x="0px" y="0px"
	 viewBox="0 0 171.9 145.9" style="enable-background:new 0 0 171.9 145.9;" xml:space="preserve">
<g>
	<path d="M0,50.6c0.8-0.6,1.5-1.2,2.3-1.6c0.6-0.3,1.3-0.5,2-0.5c25,0,50,0,75,0c1,0,1.7-0.2,2.4-0.9c4.8-4.8,9.5-9.6,14.3-14.4
		c0.5-0.5,0.7-1.1,0.7-1.9c0-4.4-0.1-8.8,0-13.2c0.1-2.2,0.3-4.6,1-6.7c1.6-4.4,4.4-7.8,8.8-9.8c1.7-0.7,3.4-1.1,5.2-1.5
		c1.9-0.5,3.7,0,5.5,0.2c1.7,0.2,3.4,1.2,5,1.9c1,0.5,1.9,1,2.6,1.8c1.3,1.4,2.6,2.9,3.5,4.6c0.9,1.7,1.5,3.6,2.1,5.4
		c0.1,0.4,0.1,0.8,0.1,1.2c0,10.6,0,21.1,0,31.7c0,1.3,0.4,1.5,1.6,1.5c8.2,0,16.5-0.1,24.7,0c2.9,0.1,5.9,0.7,8.3,2.7
		c1.2,1,2.6,1.9,3.5,3.1c1.2,1.7,2.5,3.6,2.6,5.8c0.1,1.2,0.5,2.4,0.4,3.6c-0.1,3.3-1,6.4-3.2,8.9c-0.6,0.6-1,1.4-1.5,2.2
		c2.9,3.1,4.8,6.7,4.7,11.1c0,4.3-1.8,8-4.7,11c1.2,1.9,2.6,3.7,3.5,5.7c1.1,2.3,1.5,4.9,1.1,7.4c-0.5,3.2-1.6,6.2-4,8.5
		c-0.8,0.7-0.9,1.1-0.1,1.9c3.1,3.1,4.2,4.1,4.2,11.5c-0.2,2.4-1.2,13.8-12.3,13.8c-52.5,0-105,0-157.4,0c-0.4-0.5-0.9-0.9-1.3-1.4
		c-0.3-0.3-0.5-0.5-0.8-0.8C0,112.7,0,81.7,0,50.6z M112.8,138.2c14.7,0,29.4,0,44,0c2.1,0,4-0.8,5.2-2.2c1.7-2,2.7-4.3,1.7-7.2
		c-1.1-3.1-3.6-5.1-6.7-5.2c-6-0.1-12-0.1-18,0c-1,0-1.2-0.3-1.2-1.2c0.1-1.6,0-3.2,0-4.8c0-1.7,0-1.7,1.6-1.7c5.9,0,11.8,0,17.6,0
		c2.1,0,5.2-2.2,6.1-4c0.9-1.9,1.1-3.6,0.5-5.6c-1-2.9-3.3-4.9-6.3-5c-6-0.1-12-0.1-18,0c-1.3,0-1.6-0.4-1.5-1.6
		c0.1-1.6,0.1-3.1,0-4.7c-0.1-1.2,0.3-1.5,1.5-1.5c5.5,0.1,11,0.1,16.6,0c1.3,0,2.7-0.3,3.9-0.9c2.8-1.4,4.5-3.7,4.3-7
		c-0.1-1.1-0.6-2.3-1.2-3.4c-1.1-2-2.8-3.3-5.1-3.4c-6.2,0-12.5,0-18.7,0c-0.9,0-1.2-0.2-1.2-1.1c0.1-1.7,0.1-3.4,0-5
		c-0.1-1.2,0.4-1.6,1.6-1.6c5.2,0.1,10.4,0.1,15.6,0c1.5,0,3.1-0.3,4.6-0.8c3.4-1.2,5.4-5.9,4-9.5c-0.9-2.4-4.5-4.7-7.5-4.7
		c-9.8,0-19.7,0-29.5,0c-0.5,0-1,0-1.5-0.2c-1.6-0.7-2.1-2.2-2.1-3.8c0-11.4,0-22.7,0-34.1c0-1.2-0.1-2.4-0.4-3.5
		c-0.6-2.6-2.2-4.4-4.5-5.7c-2.1-1.1-4.2-1.5-6.5-0.8c-2.2,0.6-4,1.9-5.3,3.7c-1.5,2.2-2,4.7-1.9,7.3c0.1,5,0,9.9,0,14.9
		c0,1.4-0.6,2.5-1.4,3.3c-5.8,5.8-11.6,11.6-17.4,17.4c-1,0.9-2.1,1.6-3.6,1.6c-4.4-0.1-8.7,0-13.1,0c-1.7,0-1.7,0-1.7,1.7
		c0,26.2,0,52.5,0,78.7c0,1.6,0,1.6,1.7,1.6C83.6,138.2,98.2,138.2,112.8,138.2z M59.6,138.2c0-0.5,0-1.1,0-1.5c0-26.3,0-52.6,0-79
		c0-1.6,0-1.6-1.5-1.6c-7.1,0.1-44.2,0-48.6,0c-1.7,0-1.7,0-1.7,1.7c0,26.2,0,52.5,0,78.7c0,1.6,0,1.6,1.5,1.6
		C10,138.2,59,138.2,59.6,138.2z"/>
</g>
</svg>
