<?xml version="1.0" encoding="utf-8"?>
<!-- Generator: Adobe Illustrator 23.0.1, SVG Export Plug-In . SVG Version: 6.00 Build 0)  -->
<svg version="1.1" id="Слой_1" xmlns="http://www.w3.org/2000/svg" xmlns:xlink="http://www.w3.org/1999/xlink" x="0px" y="0px"
	 viewBox="0 0 1244.7 1242.9" style="enable-background:new 0 0 1244.7 1242.9;" xml:space="preserve">
<style type="text/css">
	.st0{fill:none;stroke:#000000;stroke-width:540;stroke-miterlimit:10;}
</style>
<g transform="translate(0.000000,1278.000000) scale(0.100000,-0.100000)">
	<path class="st0" d="M7009.1,12566.8c-15.1-7.5-39.5-24.5-52.7-39.5s-144-251.3-290.8-526.1c-146.8-273.9-280.5-520.5-297.4-547.8
		c-49.9-79.1-46.1-78.1-308.7-88.5l-232.5-10.4l-49.9,24.5c-49.9,24.5-55.5,32-391.6,516.7c-188.2,270.1-351.1,504.5-363.3,520.5
		c-27.3,36.7-75.3,60.2-124.2,60.2c-40.5,0-1105-353.9-1141.7-379.3c-54.6-38.6-65.9-83.8-55.5-221.2
		c22.6-278.6,66.8-839.6,76.2-968.5l11.3-144l-27.3-53.7c-26.4-51.8-35.8-60.2-220.2-188.2c-106.4-73.4-208-138.4-225.9-144
		c-77.2-22.6-86.6-19.8-692.7,231.5c-622.2,257.9-604.3,251.3-677.7,218.4c-35.8-16.9-735.1-886.6-749.2-931.8
		c-7.5-27.3-7.5-45.2,0-72.5c7.5-23.5,143.1-209.9,378.4-519.6c318.1-419.8,368-490.4,377.4-530.9c13.2-61.2,13.2-61.2-109.2-353
		c-108.2-260.7-132.7-297.4-206.1-323.8c-21.6-7.5-305-62.1-631.6-120.5c-621.2-111.1-624-112-665.5-168.5
		c-48.9-65.9-170.4-1193.5-130.8-1217c5.6-3.8,275.8-103.5,599.6-222.1s602.4-224,618.4-233.4c62.1-35.8,76.2-76.2,132.7-388.7
		c29.2-159.1,52.7-308.7,52.7-334.1c0-29.2-8.5-61.2-21.6-85.7c-14.1-27.3-157.2-166.6-463.1-450.9
		c-243.8-225.9-450.9-424.5-461.2-439.6c-12.2-19.8-17.9-44.2-16.9-76.2c0-43.3,23.5-91.3,240-512
		c132.7-255.1,252.3-476.3,266.4-491.3c13.2-14.1,42.4-31.1,64-36.7c36.7-10.4,81.9-1.9,627.8,121.4
		c615.6,139.3,637.2,142.1,705.9,110.1c36.7-17.9,474.4-469.7,500.7-516.7c35.8-65.9,33.9-84.7-62.1-459.3
		c-221.2-863.1-216.5-844.3-204.2-884.8c5.6-20.7,20.7-48,32-61.2c11.3-13.2,227.8-140.2,481-282.4c417-234.4,465-258.8,503.6-258.8
		c25.4,0,55.5,7.5,71.5,16.9c16,10.4,216.5,209,447.1,443.3s433.9,433.9,453.7,443.3c68.7,36.7,87.5,34.8,432-42.4
		c177.9-39.5,334.1-78.1,346.4-86.6c64.9-42.4,68.7-50.8,269.2-653.2c189.2-567.6,194.8-582.6,230.6-614.6
		c20.7-18.8,51.8-35.8,72.5-39.5c85.7-16,619.3,17.9,960.1,61.2c154.4,19.8,187.3,35.8,213.7,106.4c8.5,22.6,70.6,303.1,137.4,623.1
		c80.9,382.1,128.9,593,140.2,611.8c36.7,58.4,64,72.5,351.1,181.7c309.7,118.6,349.2,127.1,417.9,90.4
		c16.9-9.4,233.4-179.8,480-379.3c247.5-199.5,462.1-369.9,478.1-379.3c20.7-12.2,42.4-16,78.1-13.2c48,2.8,58.4,10.4,328.5,214.6
		c548.7,415.1,600.5,455.6,618.4,481c10.4,13.2,20.7,45.2,22.6,70.6c4.7,41.4-14.1,96-213.7,619.3
		c-120.5,316.3-221.2,589.2-223.1,607.1c-9.4,64.9,12.2,105.4,162.8,312.5c80.9,110.1,156.2,210.8,167.5,222.1
		c32.9,36.7,89.4,61.2,142.1,60.2c25.4,0,306.8-28.2,624-63.1l576-62.1l40.5,17.9c21.6,10.4,47.1,26.4,56.5,36.7
		c13.2,15.1,342.6,897.9,397.2,1064.5c20.7,61.2,7.5,112.9-40.5,161.9c-18.8,19.8-252.3,195.8-518.6,391.6
		c-478.1,351.1-483.8,355.8-507.3,407.6l-23.5,51.8l11.3,202.4c15.1,264.5,16.9,276.7,51.8,327.5c28.2,40.5,49.9,52.7,577,317.2
		c302.1,151.5,555.3,281.4,563.8,288c20.7,17.9,50.8,80,50.8,105.4c0,39.5-243.8,1145.5-258.8,1174.7c-8.5,16-30.1,38.6-49.9,51.8
		c-39.5,25.4,0.9,22.6-953.5,83.8c-366.1,23.5-372.7,25.4-428.3,78.1c-40.5,38.6-209.9,357.7-216.5,408.5c-3.8,25.4,0,56.5,7.5,79.1
		c7.5,20.7,152.5,272,321.9,558.2c295.5,497,308.7,521.4,308.7,566.6c-0.9,25.4-6.6,56.5-13.2,69.7c-12.2,23.5-800,832-845.2,866.9
		c-14.1,11.3-42.4,19.8-75.3,21.6l-53.7,3.8l-530.9-294.6c-291.8-161.9-547.8-300.3-568.5-307.8c-64.9-22.6-107.3-8.5-282.4,89.4
		c-177,98.8-195.8,112.9-223.1,166.6c-24.5,47.1-23.5,34.8-46.1,706.9c-18.8,555.3-19.8,575.1-40.5,616.5
		c-34.8,70.6,33.9,49.9-926.2,278.6c-161.9,37.6-304,69.7-315.3,69.7C7046.8,12579.1,7025.1,12573.4,7009.1,12566.8z"/>
	<path class="st0" d="M6571.5,9443.7c212.3-27.8,388.3-67.2,571.3-128.2c971.9-321.2,1716.1-1158,1917.6-2155.4
		c44-218.5,54-323.5,54-577.5c0.8-239.3-3.1-298-34.7-490.2c-148.2-902.5-737.3-1696.1-1562.5-2103.7
		c-312.7-154.4-582.9-235.5-961.1-287.2c-118.1-16.2-548.9-13.1-679.4,3.9c-674.7,91.9-1263,385.2-1721.6,859.2
		c-655.4,677.8-935.7,1611.9-764.3,2547.6c112.7,615.3,447,1202.8,923.3,1623.5c470.1,414.6,1043.7,660.8,1674.5,718
		C6105.2,9464.5,6458,9458.4,6571.5,9443.7z"/>
</g>
</svg>
