<?xml version="1.0" encoding="utf-8"?>
<!-- Generator: Adobe Illustrator 23.0.1, SVG Export Plug-In . SVG Version: 6.00 Build 0)  -->
<svg version="1.1" xmlns="http://www.w3.org/2000/svg" xmlns:xlink="http://www.w3.org/1999/xlink" x="0px" y="0px"
	 viewBox="0 0 1930.5 2295.8" style="enable-background:new 0 0 1930.5 2295.8;" xml:space="preserve">
<style type="text/css">
	.st0{display:none;}
	.st1{display:inline;}
</style>
<g id="Слой_1" class="st0">
	<g class="st1">
		<g>
			<path d="M1079.8,1718.9c-13.6,11.1-25.7,19.2-35.9,29.4c-36.1,35.9-87.4,42.5-131.8,22.4c-7.9-3.6-15.3-8.7-22.2-14.1
				c-12.7-10.1-24.8-21-39.5-33.5c-5.9,11.4-11.7,21.7-16.8,32.4c-3.1,6.6-5.1,13.7-8,20.4c-18.2,41.8-36.3,83.6-54.9,125.1
				c-11,24.6-23.6,48.5-34.4,73.2c-14.6,33.7-27.5,68.1-42.3,101.7c-16.1,36.5-33.9,72.3-50.3,108.7c-12.5,27.7-22.5,56.5-36.2,83.5
				c-14.3,28.2-42.5,41.5-69.1,7.5c-13-16.5-27.9-31.5-41.5-47.5c-12.6-14.9-24.4-30.6-36.9-45.6c-11.9-14.3-24.5-27.9-36.2-42.3
				c-11.7-14.4-22.1-29.8-34.1-43.9c-14.8-17.4-30.1-34.6-46.5-50.5c-3.6-3.5-12.5-2.6-18.9-2.1c-14.2,1.1-74.9,4.4-91,5
				c-39.4,1.4-78.7,3.3-118,5.2c-26.6,1.3-53.2,3.8-79.9,4.5c-25.5,0.6-42.8-27.8-32.5-50.9c11.7-26.1,22.5-52.5,34-78.6
				c14-31.7,28.7-63.1,42.5-94.9c13.9-32,26.8-64.5,40.6-96.5c9-20.9,19.4-41.3,28.4-62.2c16.1-37.3,31.4-75,47.6-112.3
				c10.2-23.4,21.7-46.1,32.2-69.3c13.6-29.9,26.6-60.2,40.5-90c4.2-9.1-0.4-12.1-7.2-14.2c-43.7-13.2-71-40.5-82.3-86
				c-6.7-26.7,0.3-50.6,5.1-75.5c2.2-11.8,4.3-23.6,5.7-35.4c2.1-17.5,3.3-35.1,5.5-52.6c1.3-10.4,4.3-20.7,5.4-31.1
				c1.5-13.6-5.2-24-13.9-34.1c-10.4-12.3-18.8-26.3-28.8-39c-10.4-13.1-22.1-25.2-32.5-38.4c-15.1-19.1-31.5-37.7-43.8-58.6
				c-13.8-23.5-13.5-49.1-6.6-76.4c5.9-23.2,18.6-39.5,33.5-56.5c19.1-21.8,35.6-46,53.3-69.1c11.5-15.1,24.8-29.3,33.9-45.7
				c5.1-9.2,5.1-22.5,4-33.6c-1.8-18.1-6.5-35.9-9.9-53.9c-3.1-16.8-7.4-33.6-8.8-50.6c-2.5-30.2-11.1-59.5,1.8-90.9
				c15.4-37.7,41.7-58.4,78.6-69.9c14.5-4.5,28.6-10.7,42.8-16.3c26.2-10.4,52-22.4,78.7-31c22.9-7.4,29.9-26.4,37.9-44.6
				c7.2-16.3,10.8-34.3,17.4-50.9c11.7-29.7,23.7-59.4,37.2-88.4c10.9-23.4,29.7-39.5,54.7-46.8c15.3-4.5,31-10.2,46.5-10.1
				c16.5,0,33,6.3,49.5,9.6c10.8,2.1,21.7,4.1,32.7,5.5c26.7,3.4,53.7,5.6,80.2,10c23.2,3.8,37.8-10.4,53.2-22.6
				c27.4-21.7,54.2-44.4,81.3-66.6c9-7.3,17.9-14.8,27.5-21.4c26.8-18.5,55.9-21.8,87.6-15.1c34,7.2,56.2,31.6,81.5,51.7
				c14.8,11.8,30,23,44.8,34.8c12,9.6,23.8,19.3,35.2,29.5c13.6,12.3,29.9,10.3,45.6,8.7c16.1-1.7,31.9-5.8,47.8-8.7
				c19.4-3.5,38.7-7.5,58.3-10.1c20.7-2.7,42.1-8,62.2-5.1c33.3,4.8,63.6,20.2,80.3,51.2c13,24.3,21.4,51.1,31.9,76.7
				c7.6,18.7,15.4,37.4,23,56.1c2.8,6.8,5.8,13.6,7.7,20.6c6.7,24.7,26.5,33.8,47.9,41.5c25.3,9.1,50.5,18.2,75.5,28
				c20.9,8.2,42.6,15.7,61.8,26.9c14,8.2,27.1,20.4,36.4,33.7c14.5,20.8,22.1,45.3,20,71.1c-1.2,14.6-5.8,28.8-8.5,43.3
				c-2.2,11.4-4.2,22.8-5.6,34.3c-2.2,17.4-3.9,35-6,52.4c-1.6,14.2-3.7,28.4-5,42.7c-0.3,3.9,0.4,9.1,2.7,11.9
				c10.7,13.2,22.4,25.4,33.1,38.6c9.3,11.6,17.3,24.2,26.5,35.9c11,13.9,21.6,28.5,34.6,40.5c24.3,22.4,36,77.1,28.3,109.5
				c-8.5,35.5-34.2,56.6-54,83c-9.2,12.2-17.1,25.4-26.6,37.3c-9.9,12.4-20.4,24.5-31.8,35.4c-13.7,13.2-15.8,35.9-9.7,54.5
				c4.2,12.5,5.7,26,7.5,39.2c3.6,27.2,6.4,54.4,9.8,81.6c1.3,10.5,5.3,21,4.7,31.2c-2.7,44.4-20.7,79.5-63.5,98.5
				c-9.3,4.1-18.4,8.9-28.3,13.7c5.8,13.6,11.5,27.2,17.5,40.7c10,22.8,20.3,45.4,30.2,68.3c15.2,35.3,29.7,71,45.4,106.2
				c16.4,36.5,34.4,72.3,50.7,108.9c15,33.7,28.3,68.1,42.7,102c8.1,19.1,16.5,38,25.2,56.8c16.5,35.7,34.9,70.7,49.3,107.2
				c6.5,16.6,19.3,34.1,7.4,54.7c-7,12.1-20.1,21.6-34.1,20.7c-0.5,0-0.9-0.2-1.4-0.2c-51.8-1.7-103.6-3.3-155.4-5.2
				c-38.9-1.5-77.8-3.4-116.7-5.2c-40.8,0-27.4-1.8-61.9,32.7c-13.2,13.2-25.4,27.2-37.4,41.4c-13.4,15.9-25.8,32.6-38.6,49
				c-7.1,9-13.8,18.4-21.4,27c-13.6,15.4-27.9,30.2-41.7,45.5c-11.5,12.8-22.6,26-34,39c-17.1,19.4-45.6,15.8-56.8-7.8
				c-16.9-35.5-32.8-71.4-49.3-107c-10-21.6-20.8-42.7-30.3-64.5c-15.5-35.7-29.7-71.9-45.3-107.5c-16.6-38.1-34.3-75.8-51.4-113.7
				c-12.4-27.5-24.7-54.9-36.6-82.6C1102,1773.5,1091.3,1746.9,1079.8,1718.9z M568.9,179.8c-1.1,0.7-3,1.9-5,2.9
				c-15.5,8.2-25.2,19.8-30.2,37.6c-6,21.2-16.8,41-24.8,61.6c-9.9,25.5-17.2,52.2-29.1,76.8c-6.6,13.7-19.1,25.2-30.9,35.5
				c-10.2,8.9-22.4,16.1-34.9,21.4c-26.8,11.4-54.4,21-81.6,31.4c-18.2,7-36.1,14.7-54.5,21c-13.4,4.5-29,27.9-25.9,39.7
				c3.8,14.6,7.2,29.4,9.5,44.3c2.6,16.9,2,34.5,6,51c7.2,29.9,9.8,60,9,90.6c-0.7,24.6-12.9,44.1-27.2,62.5
				c-11.3,14.6-23.3,28.6-35,42.8c-11.2,13.7-22.6,27.3-33.5,41.2c-9.7,12.4-19.1,25-28.5,37.7c-6.8,9.2-6.2,18.7,0.2,27.6
				c9,12.4,18.4,24.5,28,36.4c8.8,10.9,18.3,21.1,27,32.1c12.4,15.6,24.5,31.5,36.6,47.4c7.8,10.2,16.7,19.9,22.8,31.1
				c15.8,28.9,10.4,60.7,8.6,91.2c-1.8,30.2-8.9,60.1-13.7,90.1c-0.7,4.1-2.3,8.1-2.7,12.2c-1.3,14.8-5.4,30.5-2.1,44.3
				c2.3,9.4,14.2,17.9,23.6,23.8c9.3,5.8,20.9,7.7,31.4,11.8c31,12,61.4,25.8,92.9,36c37.6,12.2,64.3,35.6,80.8,70.5
				c8.2,17.4,12.5,36.6,19.5,54.6c11,27.9,24.5,54.9,33.9,83.3c5.4,16.4,15.3,25.7,29.9,29.8c7.1,2,15.8-2.3,23.8-3.4
				c27.6-3.8,55.2-7.7,82.8-11.1c26.2-3.3,52.4-6.6,78.7-9.2c30-3,53.6,11,75.1,30c13.4,11.8,26.9,23.4,40.8,34.6
				c14.4,11.6,29.3,22.5,43.8,33.9c9.9,7.7,19.1,16.4,29.3,23.6c12.3,8.7,25.8,9,38.3,0.6c10.4-7,19.9-15.3,29.4-23.4
				c11.3-9.6,22-20.1,33.5-29.5c18.7-15.3,37.2-31.1,57.2-44.7c14.7-10,31.3-22.7,47.7-23.8c32.5-2.2,65.5,2.1,98.2,5.1
				c16.1,1.5,31.8,6.4,47.8,9.2c18,3.1,36,5.7,54,8.3c3.1,0.5,6.7,1,9.5-0.1c15.8-6,25.9-18.2,31.9-33.4
				c10.2-25.9,19.1-52.3,29-78.3c7.1-18.6,16.8-36.3,22-55.3c8.1-29.5,29.5-46.9,53.5-60.3c20-11.1,43.2-16.3,64.8-24.6
				c29.3-11.3,58.3-23.4,87.7-34.5c17.2-6.5,27-26.6,22.7-45c-3.4-14.5-4.7-29.6-6.6-44.4c-2-15.6-2-31.7-5.9-46.9
				c-7.1-27.7-11.1-55.4-10.5-84c0.7-28.4,14.6-50.4,31.8-71c10.7-12.9,22.6-24.8,33.1-37.8c18.6-23.2,36.3-47.1,54.9-70.3
				c10.4-12.9,13.1-24.2,4.5-38.2c-7.8-12.6-17.3-24.2-26.7-35.7c-11.2-13.8-23.3-26.8-34.4-40.6c-11-13.6-20.8-28.3-32-41.7
				c-17.6-21.1-32.5-43.2-30.9-72.2c1.4-25.1,2.9-50.2,6-75.2c1.9-15.3,7.7-30.2,10.1-45.5c2.9-18.3,3.5-37,6-55.4
				c2.7-19-4.1-35.3-21.1-42c-32.3-12.8-65.5-23.2-97.3-37c-31.2-13.5-67.6-18.5-89.6-48.5c-9.5-13-17.6-27.2-24.5-41.7
				c-7.3-15.5-12-32.1-18.3-48.1c-10.8-27-24-53.2-32.1-81c-3.4-11.5-9.7-18.4-17.2-24c-6.5-4.8-16.6-7.8-24.7-7
				c-17.6,1.8-34.8,6.9-52.3,9.9c-14.2,2.4-29,2.3-43,5.5c-25.9,5.9-51.8,9.3-78.5,9.8c-31.2,0.5-55.5-12-77.4-32.5
				c-10.5-9.9-22-18.8-33.3-27.8c-14.9-11.8-30.2-23-45-34.7c-11.7-9.3-22.7-19.6-34.8-28.3c-12.8-9.2-26.6-8.1-39.3,2.2
				c-13.3,10.8-26,22.4-39,33.5c-9.2,7.8-18.3,15.8-27.8,23.1c-13.5,10.4-29.3,18.6-40.9,30.9c-34.6,36.6-78.4,36.1-122.6,32.4
				c-30.3-2.6-60.3-9.2-90.4-14c-3.2-0.5-6.5-0.9-9.7-1.6C597.2,185.9,583.6,182.9,568.9,179.8z M1585.7,1421.1
				c-11.9,3.8-21.1,6.5-30.1,9.6c-20.4,7-39.2,14.7-47.6,38.2c-16.4,46.2-34.8,91.7-52.3,137.6c-17.3,45.4-63.8,69.3-105.9,70.2
				c-16.8,0.4-128.8-20.3-146-24.1c-20.3-3.5-43.5-1.3-54.7,8.6c-1.8,2.3-4.5,10.5-3.6,13c7.7,20.3,15.7,40.6,24.2,60.6
				c13.1,30.6,26.6,61,40,91.5c18.9,43.2,37.7,86.4,56.9,129.4c14.7,33.1,30.1,65.8,44.8,98.9c17.4,39.2,34.7,78.5,51.3,118
				c3.7,8.7,8.5,7.4,12.6,3.1c10.2-11.8,172.9-207.6,188.4-207.3c21.4,0.4,260.3,8.6,264.1,8.1c-3-8.2-5-15.3-8.1-21.9
				c-10.5-23-22-45.6-32-68.8c-15-34.7-29-70-43.8-104.8c-11.5-27.1-23.5-54.1-35.5-81c-19.9-44.5-39.8-88.9-59.9-133.3
				c-11.4-25.2-23.6-50-34.6-75.4C1603.9,1468.4,1595.2,1445,1585.7,1421.1z M561.9,2179.6c7.5-17.3,14.6-33.7,21.7-50.1
				c20.1-45.8,40.1-91.7,60.4-137.4c13.6-30.5,27.7-60.8,41.3-91.3c19-42.7,37.7-85.4,56.4-128.2c12.6-28.9,25.2-57.9,37.5-86.9
				c6.5-15.3,2.8-22.8-12.4-29.9c-24.4-11.4-47.7,1.9-71.6,2.3c-11,0.2-22.1,1.7-32.9,3.7c-24.7,4.7-49.1,11.8-74.1,14.8
				c-38.1,4.7-70.4-8.7-97.1-36.5c-19.6-20.4-25.4-47.4-36.5-71.8c-5.9-13-10.8-26.6-16.1-39.9c-10.5-26.2-20.9-52.5-31.7-78.6
				c-0.9-2.2-3.4-4.3-5.7-5.3c-14.1-6.3-28.2-12.6-42.6-18.3c-9.4-3.7-16.3-0.2-20.5,9.2c-10,22.1-20.6,43.9-30.3,66.1
				c-17.3,39.5-34.3,79.1-51.4,118.7c-16,37-31.8,74-48.1,110.8c-11,24.7-23.2,48.9-34,73.7c-14.7,33.9-28.3,68.4-43,102.3
				c-8.9,20.5-19.1,40.3-28.4,60.6c-1.1,2.5-0.2,5.9-0.2,12.1c37.2-2.7,72.7-6,108.2-7.6c51.4-2.3,102.8-4,154.3-4.3
				c9.5-0.1,21.2,5.4,28.3,12.2c13.9,13.4,25.2,29.4,37.6,44.4c19,23,38.1,45.9,57.1,69c10.2,12.4,20.1,24.9,30.1,37.4
				c11.3,14.2,22.3,28.5,33.7,42.6C553.4,2175.6,556.4,2176.4,561.9,2179.6z"/>
			<path d="M887.5,1032.5c32.8-31.6,65.7-62.9,98-94.7c24.2-23.9,47.7-48.6,71.6-72.7c28.3-28.5,56.8-56.9,85.3-85.2
				c26.9-26.6,53.9-53.1,80.8-79.7c14-13.8,43.4-13.1,56.5-3.5c14.8,10.9,16.3,42,1.5,56.9c-51.1,51.2-102.7,102.1-153.8,153.3
				c-37.4,37.5-74.4,75.5-111.7,113.1c-33.6,33.9-67.4,67.7-101.2,101.5c-8.6,8.6-39.6,8.4-48.8-0.7c-29.6-29.2-59-58.8-88.4-88.2
				c-41.1-41.1-82.2-82.3-123.4-123.4c-12.5-12.5-24.7-24.2-20.3-45.1c3-14.4,19.1-28.3,33.4-30.5c21.1-3.2,30.6,11.6,42.3,23.1
				c42.2,41.4,84,83.2,126,124.8C852.8,998.8,870.4,1015.8,887.5,1032.5z"/>
		</g>
	</g>
</g>
<g id="Слой_2">
	<g>
		<path d="M1079.8,1718.9c-13.6,11.1-25.7,19.2-35.9,29.4c-36.1,35.9-87.4,42.5-131.8,22.4c-7.9-3.8-15.4-8.5-22.2-14.1
			c-12.7-10.1-24.8-21-39.5-33.5c-5.9,11.4-11.7,21.7-16.8,32.4c-3.1,6.6-5.1,13.7-8,20.4c-18.2,41.8-36.3,83.6-54.9,125.1
			c-11,24.6-23.6,48.5-34.4,73.2c-14.6,33.7-27.5,68.1-42.3,101.7c-16.1,36.5-33.9,72.3-50.3,108.7c-12.5,27.7-22.5,56.5-36.2,83.5
			c-14.3,28.2-42.5,41.5-69.1,7.5c-13-16.5-27.9-31.5-41.5-47.5c-12.6-14.9-24.4-30.6-36.9-45.6c-11.9-14.3-24.5-27.9-36.2-42.3
			c-11.7-14.4-22.1-29.8-34.1-43.9c-14.8-17.4-30.1-34.6-46.5-50.5c-3.6-3.5-12.5-2.6-18.9-2.1c-14.2,1.1-74.9,4.4-91,5
			c-39.4,1.4-78.7,3.3-118,5.2c-26.6,1.3-53.2,3.8-79.9,4.5c-25.5,0.6-42.8-27.8-32.5-50.9c11.7-26.1,22.5-52.5,34-78.6
			c14-31.7,28.7-63.1,42.5-94.9c13.9-32,26.8-64.5,40.6-96.5c9-20.9,19.4-41.3,28.4-62.2c16.1-37.3,31.4-75,47.6-112.3
			c10.2-23.4,21.7-46.1,32.2-69.3c13.6-29.9,26.6-60.2,40.5-90c4.2-9.1-0.4-12.1-7.2-14.2c-43.7-13.2-71-40.5-82.3-86
			c-6.7-26.7,0.3-50.6,5.1-75.5c2.2-11.8,4.3-23.6,5.7-35.4c2.1-17.5,3.3-35.1,5.5-52.6c1.3-10.4,4.3-20.7,5.4-31.1
			c1.5-13.6-5.2-24-13.9-34.1c-10.4-12.3-18.8-26.3-28.8-39c-10.4-13.1-22.1-25.2-32.5-38.4c-15.1-19.1-31.5-37.7-43.8-58.6
			c-13.8-23.5-13.5-49.1-6.6-76.4c5.9-23.2,18.6-39.5,33.5-56.5c19.1-21.8,35.6-46,53.3-69.1c11.5-15.1,24.8-29.3,33.9-45.7
			c5.1-9.2,5.1-22.5,4-33.6c-1.8-18.1-6.5-35.9-9.9-53.9c-3.1-16.8-7.4-33.6-8.8-50.6c-2.5-30.2-11.1-59.5,1.8-90.9
			c15.4-37.7,41.7-58.4,78.6-69.9c14.5-4.5,28.6-10.7,42.8-16.3c26.2-10.4,52-22.4,78.7-31c22.9-7.4,29.9-26.4,37.9-44.6
			c7.2-16.3,10.8-34.3,17.4-50.9c11.7-29.7,23.7-59.4,37.2-88.4c10.9-23.4,29.7-39.5,54.7-46.8c15.3-4.5,31-10.2,46.5-10.1
			c16.5,0,33,6.3,49.5,9.6c10.8,2.1,21.7,4.1,32.7,5.5c26.7,3.4,53.7,5.6,80.2,10c23.2,3.8,37.8-10.4,53.2-22.6
			c27.4-21.7,54.2-44.4,81.3-66.6c9-7.3,17.9-14.8,27.5-21.4c26.8-18.5,55.9-21.8,87.6-15.1c34,7.2,56.2,31.6,81.5,51.7
			c14.8,11.8,30,23,44.8,34.8c12,9.6,23.8,19.3,35.2,29.5c13.6,12.3,29.9,10.3,45.6,8.7c16.1-1.7,31.9-5.8,47.8-8.7
			c19.4-3.5,38.7-7.5,58.3-10.1c20.7-2.7,42.1-8,62.2-5.1c33.3,4.8,63.6,20.2,80.3,51.2c13,24.3,21.4,51.1,31.9,76.7
			c7.6,18.7,15.4,37.4,23,56.1c2.8,6.8,5.8,13.6,7.7,20.6c6.7,24.7,26.5,33.8,47.9,41.5c25.3,9.1,50.5,18.2,75.5,28
			c20.9,8.2,42.6,15.7,61.8,26.9c14.4,8.6,26.8,20.1,36.4,33.7c14.5,20.8,22.1,45.3,20,71.1c-1.2,14.6-5.8,28.8-8.5,43.3
			c-2.2,11.4-4.2,22.8-5.6,34.3c-2.2,17.4-3.9,35-6,52.4c-1.6,14.2-3.7,28.4-5,42.7c-0.3,3.9,0.4,9.1,2.7,11.9
			c10.7,13.2,22.4,25.4,33.1,38.6c9.3,11.6,48.1,64.4,61.1,76.3c24.3,22.4,36,77.1,28.3,109.5c-16.6,33.2-101,144.6-112.4,155.7
			c-13.7,13.2-12.3,27.1-2.2,93.7c3.6,27.2,7.6,53.9,11,81c1.3,10.5,4.1,21.5,3.5,31.8c-2.7,44.4-20.7,79.5-63.5,98.5
			c-9.3,4.1-18.4,8.9-28.3,13.7c5.8,13.6,11.5,27.2,17.5,40.7c10,22.8,20.3,45.4,30.2,68.3c15.2,35.3,29.7,71,45.4,106.2
			c16.4,36.5,34.4,72.3,50.7,108.9c15,33.7,28.3,68.1,42.7,102c8.1,19.1,16.5,38,25.2,56.8c16.5,35.7,34.9,70.7,49.3,107.2
			c6.5,16.6,19.3,34.1,7.4,54.7c-7,12.1-20.1,21.6-34.1,20.7c-0.5,0-0.9-0.2-1.4-0.2c-51.8-1.7-103.6-3.3-155.4-5.2
			c-38.9-1.5-77.8-3.4-116.7-5.2c-40.8,0-27.4-1.8-61.9,32.7c-13.2,13.2-25.4,27.2-37.4,41.4c-13.4,15.9-25.8,32.6-38.6,49
			c-7.1,9-13.8,18.4-21.4,27c-13.6,15.4-27.9,30.2-41.7,45.5c-11.5,12.8-22.6,26-34,39c-17.1,19.4-45.6,15.8-56.8-7.8
			c-16.9-35.5-32.8-71.4-49.3-107c-10-21.6-20.8-42.7-30.3-64.5c-15.5-35.7-29.7-71.9-45.3-107.5c-16.6-38.1-34.3-75.8-51.4-113.7
			c-12.4-27.5-24.7-54.9-36.6-82.6C1102,1773.5,1091.3,1746.9,1079.8,1718.9z M568.9,179.8c-43.7,6-52.1,81.5-60.1,102.2
			c-9.9,25.5-17.2,52.2-29.1,76.8c-6.6,13.7-19.1,25.2-30.9,35.5c-10.5,8.9-22.2,16.1-34.9,21.4c-26.8,11.4-54.4,21-81.6,31.4
			c-18.2,7-36.1,14.7-54.5,21c-13.4,4.5-29,27.9-25.9,39.7c3.9,14.6,7.1,29.4,9.5,44.3c2.6,16.9,2,34.5,6,51c7.2,29.9,9.8,60,9,90.6
			c-0.7,24.6-12.9,44.1-27.2,62.5c-11.3,14.6-23.3,28.6-35,42.8c-11.2,13.7-22.6,27.3-33.5,41.2c-9.7,12.4-19.1,25-28.5,37.7
			c-6.8,9.2-6.2,18.7,0.2,27.6c9,12.4,18.4,24.5,28,36.4c8.8,10.9,18.3,21.1,27,32.1c12.4,15.6,24.5,31.5,36.6,47.4
			c7.8,10.2,16.7,19.9,22.8,31.1c15.8,28.9,10.4,60.7,8.6,91.2c-1.8,30.2-8.9,60.1-13.7,90.1c-0.7,4.1-2.3,8.1-2.7,12.2
			c-1.3,14.8-5.4,30.5-2.1,44.3c2.3,9.4,14.2,17.9,23.6,23.8c9.3,5.8,20.9,7.7,31.4,11.8c31,12,61.4,25.8,92.9,36
			c37.6,12.2,64.3,35.6,80.8,70.5c8.2,17.4,12.5,36.6,19.5,54.6c11,27.9,24.5,54.9,33.9,83.3c5.4,16.4,15.3,25.7,29.9,29.8
			c7.1,2,15.8-2.3,23.8-3.4c27.6-3.8,55.2-7.7,82.8-11.1c26.2-3.3,52.4-6.6,78.7-9.2c30-3,53.6,11,75.1,30
			c13.4,11.8,26.9,23.4,40.8,34.6c14.4,11.6,29.3,22.5,43.8,33.9c9.9,7.7,19.1,16.4,29.3,23.6c12.3,8.7,25.8,9,38.3,0.6
			c10.4-7,19.9-15.3,29.4-23.4c11.3-9.6,22-20.1,33.5-29.5c18.7-15.3,37.2-31.1,57.2-44.7c14.7-10,31.3-22.7,47.7-23.8
			c32.5-2.2,65.5,2.1,98.2,5.1c16.1,1.5,31.8,6.4,47.8,9.2c18,3.1,36,5.7,54,8.3c3.1,0.5,6.7,1,9.5-0.1c15.8-6,25.9-18.2,31.9-33.4
			c10.2-25.9,19.1-52.3,29-78.3c7.1-18.6,16.8-36.3,22-55.3c8.1-29.5,29.5-46.9,53.5-60.3c20-11.1,43.2-16.3,64.8-24.6
			c29.3-11.3,58.3-23.4,87.7-34.5c17.2-6.5,27-26.6,22.7-45c-3.4-14.5-4.7-29.6-6.6-44.4c-2-15.6-2-31.7-5.9-46.9
			c-7.1-27.7-11.1-55.4-10.5-84c0.7-28.4,14.6-50.4,31.8-71c10.7-12.9,22.6-24.8,33.1-37.8c18.6-23.2,36.3-47.1,54.9-70.3
			c10.4-12.9,13.1-24.2,4.5-38.2c-7.8-12.6-17.3-24.2-26.7-35.7c-11.2-13.8-23.3-26.8-34.4-40.6c-11-13.6-20.8-28.3-32-41.7
			c-17.6-21.1-32.5-43.2-30.9-72.2c1.4-25.1,13.6-105.3,16-120.7c2.9-18.3,3.5-37,6-55.4c2.7-19-4.1-35.3-21.1-42
			c-32.3-12.8-65.5-23.2-97.3-37c-31.2-13.5-67.6-18.5-89.6-48.5c-9.5-13.1-84.5-189.2-92.1-194.8c-6.5-4.8-16.6-7.8-24.7-7
			c-17.6,1.8-147.4,24.6-173.8,25.1c-31.2,0.5-55.5-12-77.4-32.5c-10.5-9.9-22-18.8-33.3-27.8c-14.9-11.8-30.2-23-45-34.7
			c-11.7-9.3-22.7-19.6-34.8-28.3c-12.8-9.2-26.6-8.1-39.3,2.2c-13.3,10.8-94.5,77.5-107.7,87.5c-35.7,33.3-78.4,36.1-122.6,32.4
			c-30.3-2.6-60.3-9.2-90.4-14c-3.2-0.5-6.5-0.9-9.7-1.6C597.2,185.9,585.7,179.8,568.9,179.8z M1585.7,1421.1
			c-11.9,3.8-21.1,6.5-30.1,9.6c-20.4,7-39.2,14.7-47.6,38.2c-16.4,46.2-34.8,91.7-52.3,137.6c-17.3,45.4-63.8,69.3-105.9,70.2
			c-16.8,0.4-128.8-20.3-146-24.1c-20.3-3.5-43.5-1.3-54.7,8.6c-1.8,2.3-4.5,10.5-3.6,13c7.7,20.3,15.7,40.6,24.2,60.6
			c13.1,30.6,26.6,61,40,91.5c18.9,43.2,37.7,86.4,56.9,129.4c14.7,33.1,30.1,65.8,44.8,98.9c17.4,39.2,34.7,78.5,51.3,118
			c3.7,8.7,8.5,7.4,12.6,3.1c10.2-11.8,172.9-207.6,188.4-207.3c21.4,0.4,260.3,8.6,264.1,8.1c-3-8.2-5-15.3-8.1-21.9
			c-10.5-23-22-45.6-32-68.8c-15-34.7-29-70-43.8-104.8c-11.5-27.1-23.5-54.1-35.5-81c-19.9-44.5-39.8-88.9-59.9-133.3
			c-11.4-25.2-23.6-50-34.6-75.4C1603.9,1468.4,1595.2,1445,1585.7,1421.1z M561.9,2179.6c7.5-17.3,14.6-33.7,21.7-50.1
			c20.1-45.8,40.1-91.7,60.4-137.4c13.6-30.5,27.7-60.8,41.3-91.3c19-42.7,37.8-85.4,56.4-128.2c12.6-28.9,25.1-57.9,37.5-86.9
			c6.5-15.3,2.8-22.8-12.4-29.9c-24.4-11.4-47.7,1.9-71.6,2.3c-11.1,0.3-22.1,1.6-32.9,3.7c-24.7,4.7-49.1,11.8-74.1,14.8
			c-38.1,4.7-70.4-8.7-97.1-36.5c-19.6-20.4-25.4-47.4-36.5-71.8c-5.9-13-10.8-26.6-16.1-39.9c-10.5-26.2-20.9-52.5-31.7-78.6
			c-0.9-2.2-3.4-4.3-5.7-5.3c-14.1-6.3-28.2-12.6-42.6-18.3c-9.4-3.7-16.3-0.2-20.5,9.2c-10,22.1-20.6,43.9-30.3,66.1
			c-17.3,39.5-34.3,79.1-51.4,118.7c-16,37-31.8,74-48.1,110.8c-11,24.7-23.2,48.9-34,73.7c-14.7,33.9-28.3,68.4-43,102.3
			c-8.9,20.5-19.1,40.3-28.4,60.6c-1.1,2.5-0.2,5.9-0.2,12.1c37.2-2.7,72.7-6,108.2-7.6c51.4-2.3,102.8-4,154.3-4.3
			c9.5-0.1,21.2,5.4,28.3,12.2c13.9,13.4,25.2,29.4,37.6,44.4c19,23,38.1,46,57.1,69c10.2,12.4,20.1,24.9,30.1,37.4
			c11.3,14.2,22.3,28.5,33.7,42.6C553.4,2175.6,556.4,2176.4,561.9,2179.6z"/>
		<path d="M887.5,1032.5c32.8-31.6,65.7-62.9,98-94.7c24.2-23.9,47.7-48.6,71.6-72.7c28.3-28.5,56.8-56.9,85.3-85.2
			c26.9-26.6,53.8-53.2,80.8-79.7c14-13.8,43.4-13.1,56.5-3.5c14.8,10.9,16.3,42,1.5,56.9c-51.1,51.2-102.7,102.1-153.8,153.3
			c-37.4,37.5-74.4,75.5-111.7,113.1c-33.6,33.9-67.4,67.8-101.2,101.5c-8.6,8.6-39.6,8.4-48.8-0.7c-29.6-29.2-59-58.8-88.4-88.2
			c-41.1-41.1-82.3-82.3-123.4-123.4c-12.5-12.5-24.7-24.2-20.3-45.1c3-14.4,19.1-28.3,33.4-30.5c21.1-3.2,30.6,11.6,42.3,23.1
			c42.2,41.4,84,83.2,126,124.8C852.8,998.8,870.4,1015.8,887.5,1032.5z"/>
	</g>
</g>
</svg>
