<?xml version="1.0" encoding="utf-8"?>
<!-- Generator: Adobe Illustrator 23.0.1, SVG Export Plug-In . SVG Version: 6.00 Build 0)  -->
<svg version="1.1" id="Слой_1" xmlns="http://www.w3.org/2000/svg" xmlns:xlink="http://www.w3.org/1999/xlink" x="0px" y="0px"
	 viewBox="0 0 1907.2 1337.4" style="enable-background:new 0 0 1907.2 1337.4;" xml:space="preserve">
<g>
	<g>
		<path d="M590,0c163.5,0,327-0.2,490.5,0.3c12.7,0,103.8-1.5,103.8,94.8c0,29.7-2.5,60.1,0.2,89.7c0.3,3,1.1,8.4,2,8.5
			c3.9,0.3,8-0.9,11.9-1.6c2.5-0.5,5-1.7,7.5-1.7c111.1-0.1,222.2-0.3,333.2,0.3c10.3,0,42.1,4.4,78.7,29.8
			c69.2,43,272.6,360.2,276.3,368.8c2.8,8.4,5.8,21.7,7.3,28.8c9.9,47.4,3.8,95.7,4.1,142.9c1.3,48.3,0.3,96.7,0.3,145.1
			c0,48.1,0.5,96.2-0.5,144.3c-0.2,9.5-6.3,19-9.7,28.5c-6,17-19.4,28.3-32,39.8c-8.4,7.6-18.7,13.6-28.8,19.1
			c-15.7,8.6-33,8.9-50.4,8.6c-21.3-0.3-42.7,0.1-64-0.2c-6.7-0.1-13.8,25.1-16.1,35.4c-6.2,23.1-30.2,61.7-35.3,68.3
			c-5.3,6.8-30.2,31.5-36.9,36.9c-5.6,4.6-28.2,18.5-33.5,21.1c-11.6,5.6-23.3,10.8-35.1,15.8c-35.2,15.8-97.7,13.4-108.1,11.5
			c-36.6-6.7-71.6-22.1-79.5-26.3c-11.2-5.9-21.9-12.8-32.3-19.5c-45-29-68.2-92.4-72.7-104.6c-4-11-6-22.7-9.6-33.8
			c-0.7-2.1-4.3-4.5-6.6-4.5c-15.4-0.4-30.8-0.1-46.2-0.3c-8.8-0.1-32.1-9-35.4-10.8c-7.7-4.2-14.8-9.4-22.6-13.5
			c-2-1.1-5.8-0.3-8,1c-8.8,4.7-17.2,10.2-25.9,15c-14.5,7.9-30.3,8.5-46.4,8.5c-112.7-0.1-225.4-0.1-338.1-0.1
			c-11.4,0-10.8,0.1-12.8,12.1c-1.4,8.2-12.8,46.1-19.2,55.3c-5.8,10.6-13.5,21.8-19.4,31.5c-23.9,37.2-74.8,63.2-82.8,67.3
			c-8.4,4.2-17.3,7.7-26,11.2c-74,32.6-152.9-1.1-161.6-3.3c-40.7-15.7-56.8-32.1-70.4-43c-8.3-6.7-16.2-14.2-23-22.3
			c-5.4-6.4-23.4-37.2-27.6-45.5c-4.1-7.9-7.3-16.3-10.5-24.6c-2.9-7.6-7-22.3-8.6-28.2c-3-11.4-1-10.5-13-10.5
			c-50.5,0-101.1,0.1-151.6-0.1c-11.1,0-21.4-4.8-32-6.9c-11.8-2.4-20.5-9.3-29.3-15c-9.4-6.1-16.3-16.6-23.4-25.8
			c-5.5-7.2-10.4-15.2-14.2-23.5c-3.3-7.2-6.4-15.2-6.4-22.9C-0.1,732.4-0.1,413.3,0.4,94.1c0-10.1,5.1-20.4,8.9-30.3
			c6.7-17.5,21.1-29.2,33.9-42c3.8-3.8,8.9-6.5,13.9-8.6c8.9-3.8,18-7.2,27.3-10c12.4-3.8,24.2-3,36.2-3C277-0.1,433.5,0,590,0z
			 M590.4,78.6c-160,0-320,0.2-480-0.3c-15.6,0-32.4,16.5-32.3,32.4c0.5,141.1,0.3,282.2,0.3,423.2c0,167,0,334,0.1,501.1
			c0,3.8,1.7,7.5,2.1,11.3c1,9.4,8.7,12.6,15.5,15.9c5.9,2.9,12.8,5.5,19.2,5.6c47.3,0.5,94.6,0.3,141.9,0.2
			c11.9,0,11.9,0,13.1-11.8c0.1-1.3,5.5-19.6,8.5-27.2c3.2-8.4,7-16.6,10.7-24.8c3.8-8.3,17.1-37,44.4-61.9
			c9.6-8.6,19.1-17.5,29.6-25c48-26.9,116.9-56.2,208.1-27.7c14.6,5.4,23.2,10.5,34.7,16c5.6,2.6,53.7,30.3,75.6,66.6
			c5.3,9,11.9,17.4,16.5,26.8c5.3,10.6,9.3,21.9,13.4,33c2.9,7.9,6.1,16,7.5,24.2c1.9,11.6,1.3,11.7,13.3,11.7
			c112.7,0,225.4-0.1,338.1,0.1c10.7,0,20.4-2.6,26.1-11.4c4.5-7,8.3-15.8,8.6-24c1.1-25.1,0.4-50.3,0.4-75.4
			c0-279.2,0-558.4-0.2-837.5c0-8-1.2-17.6-5.7-23.6c-7.5-10-16.9-18.1-31.9-18.1C908.8,78.7,749.6,78.6,590.4,78.6z M1184.5,668.6
			c0,120,0.1,240-0.1,360c0,8.3,1.6,15.6,6.3,22.2c6.9,9.5,17.7,14.2,27.9,16.6c12.1,2.8,25.3,0.8,37.9,0.5c1.8-0.1,4.4-2.7,5-4.6
			c3.5-11.8,12-40.2,13.1-42.6c3.7-8.4,6.9-17,11-25.1c2.7-5.4,17.3-28.2,21.8-33.9c5.4-6.8,11.5-13.1,18-19
			c9.8-8.9,19.7-17.8,30.4-25.4c12.4-12,68.2-33.9,100.3-37.5c24.5-2.6,56.8-2.1,73.4,2c13.4,3.5,38.8,6.6,68.8,24.2
			c5.8,2.6,28.6,16.4,33.6,20.9c20.6,18.1,38.4,38.8,53.5,61.8c2,3,24.9,33.1,26.4,70.6c0.4,8.3,2.7,9.2,9.4,9.1
			c20.8-0.3,41.6,0,62.4-0.2c7.3-0.1,14.1,0.3,21.4-3.7c11-6.1,22.6-20.7,22.6-33.2c0-96.7,0-193.5,0-290.2c0-12.9,0-12.9-12.7-12.9
			c-110,0-220,0.2-330-0.2c-73.2,0-150.5-14.8-150.5-105.4c-0.9-59.7-0.4-119.4-0.3-179.2c0-52.4,12.4-101.2,118.2-101.2
			c3.2,0,115.7,0,168.6-0.1c2.5,0,8.5-0.1,8.5-0.1s0.1-2.5-4.7-8.3c-9.8-10-19.7-19.8-29.6-29.6c-3.6-3.5-32.9-35.4-66.2-35.4
			c-95.7,0-191.3-0.2-287-0.1c-13.3,0-26.1-1-38.7,7.4c-11.6,7.8-18.7,14.6-18.7,28.7C1184.5,425.9,1184.5,547.3,1184.5,668.6z
			 M1639,650.2c59.7,0,119.5,0,179.2,0c8.6,0,12-4.5,8.9-12c-4-9.9-139.2-218.3-144.5-218.3c-77.3,0.1-154.6,0-231.9,0.1
			c-39.1,0-38.8,31.4-38.8,35.1c-0.3,51.1-0.4,102.2,0.1,153.2c0.1,6.6,2,14.4,5.8,19.7c10,14.1,25.5,21.6,42,21.9
			C1519.6,650.8,1579.3,650.2,1639,650.2z M645.5,1106c1.7-43-16.5-80.8-47.6-110.5c-23.7-22.7-53.6-36.7-86.5-39.1
			c-64-4.7-114,20.4-147.9,75.7c-11.1,18.2-17.2,37.9-19,59c-4.7,56.1,15.3,101.5,59.6,136c22.8,17.8,48.7,28.9,77.7,30.6
			c54.4,3.2,99.1-15.8,132.7-59.6C635.4,1171.2,646.8,1141.3,645.5,1106z M1638.4,1100.6c2.8-13.1-5-31-10.2-48.8
			c-5.1-17.2-16.3-32.1-28-45.7c-12.1-14.1-27.3-24.8-44.1-33.4c-16.8-8.6-34.4-14.7-52.7-16.3c-57.6-4.9-104.1,16.6-138.9,62.7
			c-16.4,21.7-26.5,46.4-28.3,73.6c-4,63.2,22.5,111.2,75.3,145.1c18.6,12,39.5,18.5,61.4,19.8c56.2,3.5,102-16.6,136.1-62.2
			C1628.7,1169.2,1637.4,1139.5,1638.4,1100.6z"/>
	</g>
</g>
</svg>
